<svg width="13" height="13" viewBox="0 0 13 13" fill="none" xmlns="http://www.w3.org/2000/svg">
<path d="M11.5544 9.26293C11.5538 9.56189 11.49 9.85735 11.3673 10.13C11.2446 10.4026 11.0657 10.6462 10.8423 10.8449V11.7552C10.8423 11.8497 10.8048 11.9402 10.738 12.007C10.6712 12.0738 10.5807 12.1113 10.4862 12.1113H9.77415C9.67972 12.1113 9.58916 12.0738 9.52239 12.007C9.45562 11.9402 9.4181 11.8497 9.4181 11.7552V11.3992H3.72135V11.7552C3.72135 11.8497 3.68384 11.9402 3.61707 12.007C3.55029 12.0738 3.45973 12.1113 3.3653 12.1113H2.65321C2.55878 12.1113 2.46822 12.0738 2.40145 12.007C2.33467 11.9402 2.29716 11.8497 2.29716 11.7552V10.8449C2.07377 10.6462 1.89486 10.4026 1.77214 10.13C1.64943 9.85735 1.58568 9.56189 1.58507 9.26293V8.19481H11.5544V9.26293ZM1.22902 6.41459H10.4862V2.2589C10.486 2.16545 10.4582 2.07416 10.4061 1.99654C10.3541 1.91891 10.2803 1.85843 10.1939 1.82273C10.1076 1.78702 10.0126 1.77769 9.9209 1.79591C9.82925 1.81414 9.74504 1.85909 9.67891 1.92511L9.25009 2.3537C9.54227 3.01861 9.41944 3.66905 9.05827 4.1279L9.06206 4.13169C9.12857 4.19842 9.16592 4.28881 9.16592 4.38303C9.16592 4.47726 9.12857 4.56764 9.06206 4.63437L8.81038 4.88605C8.77731 4.91912 8.73806 4.94536 8.69486 4.96325C8.65165 4.98115 8.60535 4.99036 8.55858 4.99036C8.51182 4.99036 8.46551 4.98115 8.42231 4.96325C8.37911 4.94536 8.33985 4.91912 8.30679 4.88605L5.962 2.54129C5.92893 2.50822 5.90269 2.46897 5.8848 2.42577C5.8669 2.38257 5.85769 2.33626 5.85769 2.2895C5.85769 2.24273 5.8669 2.19643 5.8848 2.15323C5.90269 2.11002 5.92893 2.07077 5.962 2.03771L6.21368 1.78603C6.28044 1.71931 6.37097 1.68183 6.46536 1.68183C6.55975 1.68183 6.65028 1.71931 6.71704 1.78603L6.72082 1.78981C7.17968 1.42865 7.82969 1.30582 8.49505 1.598L8.92364 1.16919C9.13916 0.953648 9.41375 0.806861 9.7127 0.747391C10.0116 0.687921 10.3215 0.718438 10.6031 0.835083C10.8847 0.951728 11.1254 1.14926 11.2947 1.4027C11.464 1.65614 11.5544 1.9541 11.5544 2.2589V6.41459H11.9104C12.0049 6.41459 12.0954 6.4521 12.1622 6.51887C12.229 6.58564 12.2665 6.6762 12.2665 6.77063V7.12668C12.2665 7.22111 12.229 7.31167 12.1622 7.37844C12.0954 7.44521 12.0049 7.48272 11.9104 7.48272H1.22902C1.13459 7.48272 1.04403 7.44521 0.977257 7.37844C0.910485 7.31167 0.872973 7.22111 0.872973 7.12668V6.77063C0.872973 6.6762 0.910485 6.58564 0.977257 6.51887C1.04403 6.4521 1.13459 6.41459 1.22902 6.41459Z" fill="#019765"/>
</svg>
