<svg width="12" height="10" viewBox="0 0 12 10" fill="none" xmlns="http://www.w3.org/2000/svg">
<path d="M10.5691 4.32824C10.3025 4.21124 10.0146 4.15095 9.72354 4.1512H2.11381C1.82277 4.15092 1.53484 4.21112 1.26829 4.32797C0.891554 4.49272 0.570977 4.76366 0.345739 5.10766C0.120501 5.45166 0.000359995 5.85383 0 6.26502V9.22435C0 9.33648 0.0445409 9.44401 0.123824 9.52329C0.203108 9.60258 0.310639 9.64712 0.422762 9.64712C0.534886 9.64712 0.642417 9.60258 0.721701 9.52329C0.800984 9.44401 0.845525 9.33648 0.845525 9.22435V9.01297C0.84621 8.95712 0.868701 8.90376 0.908195 8.86426C0.947689 8.82477 1.00106 8.80228 1.05691 8.80159H10.7804C10.8363 8.80228 10.8897 8.82477 10.9292 8.86426C10.9686 8.90376 10.9911 8.95712 10.9918 9.01297V9.22435C10.9918 9.33648 11.0364 9.44401 11.1156 9.52329C11.1949 9.60258 11.3025 9.64712 11.4146 9.64712C11.5267 9.64712 11.6342 9.60258 11.7135 9.52329C11.7928 9.44401 11.8373 9.33648 11.8373 9.22435V6.26502C11.8369 5.85388 11.7168 5.45177 11.4915 5.10781C11.2663 4.76386 10.9458 4.49297 10.5691 4.32824Z" fill="#019765"/>
<path d="M9.08871 0.345829H2.74728C2.35484 0.345829 1.97849 0.501722 1.70099 0.779214C1.4235 1.05671 1.26761 1.43307 1.26761 1.8255V3.72793C1.26762 3.74431 1.27144 3.76046 1.27876 3.77511C1.28608 3.78976 1.29671 3.80251 1.30981 3.81234C1.3229 3.82218 1.3381 3.82885 1.35421 3.8318C1.37032 3.83476 1.38689 3.83394 1.40263 3.82939C1.63342 3.76189 1.87267 3.72772 2.11313 3.72793H2.2249C2.25099 3.72809 2.27622 3.71861 2.29573 3.70129C2.31524 3.68397 2.32766 3.66005 2.33059 3.63413C2.35365 3.42755 2.45199 3.23671 2.60684 3.09805C2.76168 2.95938 2.96218 2.88261 3.17004 2.8824H4.64971C4.8577 2.88242 5.05839 2.9591 5.21341 3.09778C5.36842 3.23646 5.46687 3.42742 5.48995 3.63413C5.49288 3.66005 5.5053 3.68397 5.52481 3.70129C5.54432 3.71861 5.56955 3.72809 5.59564 3.72793H6.24194C6.26802 3.72809 6.29325 3.71861 6.31276 3.70129C6.33228 3.68397 6.34469 3.66005 6.34763 3.63413C6.37067 3.42769 6.4689 3.23696 6.62358 3.09831C6.77826 2.95966 6.97856 2.88281 7.18628 2.8824H8.66595C8.87395 2.88242 9.07464 2.9591 9.22965 3.09778C9.38466 3.23646 9.48312 3.42742 9.50619 3.63413C9.50913 3.66005 9.52154 3.68397 9.54106 3.70129C9.56057 3.71861 9.58579 3.72809 9.61188 3.72793H9.72286C9.96333 3.72781 10.2026 3.76207 10.4334 3.82966C10.4491 3.83421 10.4657 3.83503 10.4818 3.83206C10.498 3.82908 10.5132 3.8224 10.5263 3.81253C10.5394 3.80266 10.55 3.78988 10.5573 3.77519C10.5646 3.76051 10.5684 3.74433 10.5684 3.72793V1.8255C10.5684 1.43307 10.4125 1.05671 10.135 0.779214C9.85751 0.501722 9.48115 0.345829 9.08871 0.345829Z" fill="#019765"/>
</svg>
