<svg width="29" height="26" viewBox="0 0 29 26" fill="none" xmlns="http://www.w3.org/2000/svg">
<path d="M14.7179 2.96166C13.216 1.58067 11.2502 0.814212 9.20987 0.814148C8.12996 0.815272 7.06094 1.02995 6.06432 1.44582C5.0677 1.86169 4.16316 2.47054 3.40275 3.23734C0.159422 6.49445 0.1608 11.5889 3.40551 14.8323L13.5118 24.9386C13.7461 25.3507 14.1982 25.6167 14.7179 25.6167C14.9312 25.6146 15.1412 25.5626 15.3308 25.4647C15.5203 25.3667 15.6843 25.2257 15.8096 25.053L26.0302 14.8323C29.275 11.5876 29.2749 6.49445 26.0275 3.23183C25.2675 2.46644 24.3636 1.85882 23.368 1.44391C22.3724 1.029 21.3045 0.814974 20.2259 0.814148C18.1856 0.814481 16.2199 1.5809 14.7179 2.96166ZM24.0785 5.18086C26.2329 7.34629 26.2342 10.7288 24.0812 12.8832L14.7179 22.2466L5.35454 12.8832C3.20151 10.7288 3.20289 7.34629 5.35178 5.18637C6.39935 4.14432 7.76946 3.57091 9.20987 3.57091C10.6503 3.57091 12.0149 4.14431 13.0542 5.18361L13.7434 5.8728C13.8713 6.00092 14.0232 6.10256 14.1904 6.1719C14.3576 6.24125 14.5368 6.27695 14.7179 6.27695C14.8989 6.27695 15.0782 6.24125 15.2454 6.1719C15.4126 6.10256 15.5645 6.00092 15.6924 5.8728L16.3816 5.18361C18.4657 3.10364 21.9971 3.10915 24.0785 5.18086Z" fill="#BFBFBF"/>
</svg>
