<svg width="18" height="23" viewBox="0 0 18 23" fill="none" xmlns="http://www.w3.org/2000/svg">
<path d="M14.162 3.07197L14.162 3.57282L14.6343 3.73947C15.3251 3.98322 15.9233 4.43524 16.3464 5.03323C16.7695 5.63122 16.9968 6.34573 16.9968 7.07828C16.9968 7.81083 16.7695 8.52534 16.3464 9.12333C15.9233 9.72132 15.3251 10.1733 14.6343 10.4171L14.162 10.5837L14.162 11.0846L14.162 21.2348C14.162 21.4226 14.0874 21.6026 13.9547 21.7354C13.8219 21.8681 13.6419 21.9427 13.4542 21.9427C13.2664 21.9427 13.0864 21.8681 12.9536 21.7354C12.8209 21.6026 12.7463 21.4226 12.7463 21.2348L12.7463 11.0846L12.7463 10.5837L12.274 10.4171C11.5832 10.1733 10.985 9.72132 10.5619 9.12333C10.1388 8.52534 9.91154 7.81083 9.91154 7.07828C9.91154 6.34573 10.1388 5.63122 10.5619 5.03323C10.985 4.43524 11.5832 3.98322 12.274 3.73947L12.7463 3.57282L12.7463 3.07197L12.7463 1.41566C12.7463 1.22793 12.8209 1.04789 12.9536 0.915147C13.0864 0.782402 13.2664 0.707828 13.4542 0.707828C13.6419 0.707828 13.8219 0.782403 13.9547 0.915147C14.0874 1.04789 14.162 1.22793 14.162 1.41566L14.162 3.07197ZM5.66804 11.5659L5.66804 12.0668L6.14035 12.2334C6.83115 12.4772 7.42935 12.9292 7.85247 13.5272C8.2756 14.1252 8.50282 14.8397 8.50282 15.5722C8.50282 16.3048 8.2756 17.0193 7.85247 17.6173C7.42935 18.2153 6.83115 18.6673 6.14035 18.911L5.66804 19.0777L5.66804 19.5785L5.66804 21.2348C5.66804 21.4226 5.59346 21.6026 5.46072 21.7354C5.32798 21.8681 5.14794 21.9427 4.96021 21.9427C4.77248 21.9427 4.59244 21.8681 4.4597 21.7354C4.32696 21.6026 4.25238 21.4226 4.25238 21.2348L4.25238 19.5785L4.25238 19.0777L3.78008 18.911C3.08927 18.6673 2.49107 18.2153 2.06795 17.6173C1.64482 17.0193 1.4176 16.3048 1.4176 15.5722C1.4176 14.8397 1.64482 14.1252 2.06795 13.5272C2.49107 12.9292 3.08927 12.4772 3.78008 12.2334L4.25238 12.0668L4.25238 11.5659L4.25238 1.41566C4.25238 1.22793 4.32696 1.04789 4.4597 0.915146C4.59245 0.782402 4.77248 0.707828 4.96021 0.707828C5.14794 0.707828 5.32798 0.782403 5.46072 0.915146C5.59346 1.04789 5.66804 1.22793 5.66804 1.41566L5.66804 11.5659ZM15.5776 7.07828C15.5776 6.5151 15.3539 5.97498 14.9557 5.57675C14.5575 5.17852 14.0173 4.9548 13.4542 4.9548C12.891 4.9548 12.3509 5.17852 11.9526 5.57675C11.5544 5.97498 11.3307 6.5151 11.3307 7.07828C11.3307 7.64147 11.5544 8.18158 11.9526 8.57981C12.3509 8.97804 12.891 9.20177 13.4542 9.20177C14.0173 9.20177 14.5575 8.97804 14.9557 8.57981C15.3539 8.18158 15.5776 7.64147 15.5776 7.07828ZM7.0837 15.5722C7.0837 15.009 6.85997 14.4689 6.46174 14.0707C6.06351 13.6725 5.52339 13.4487 4.96021 13.4487C4.39702 13.4487 3.85691 13.6725 3.45868 14.0707C3.06045 14.4689 2.83673 15.009 2.83673 15.5722C2.83673 16.1354 3.06045 16.6755 3.45868 17.0737C3.85691 17.472 4.39703 17.6957 4.96021 17.6957C5.52339 17.6957 6.06351 17.472 6.46174 17.0737C6.85997 16.6755 7.0837 16.1354 7.0837 15.5722Z" stroke="#A4A4A4" stroke-width="1.41566"/>
</svg>
