<svg width="22" height="24" viewBox="0 0 22 24" fill="none" xmlns="http://www.w3.org/2000/svg">
<path d="M21.5438 21.052L19.9799 16.2815H18.2639L19.2169 20.9333H2.43888L3.39184 16.2815H1.67583L0.11083 21.052C-0.286141 22.2661 0.417424 23.2593 1.67583 23.2593H19.9799C21.2384 23.2593 21.9419 22.2661 21.5438 21.052ZM16.5479 5.81481C16.5479 4.27263 15.9453 2.79361 14.8726 1.70312C13.7999 0.61263 12.3449 0 10.8279 0C9.31084 0 7.85593 0.61263 6.78321 1.70312C5.7105 2.79361 5.10785 4.27263 5.10785 5.81481C5.10785 11.368 10.8279 17.4444 10.8279 17.4444C10.8279 17.4444 16.5479 11.368 16.5479 5.81481ZM7.73907 5.88459C7.73907 4.15061 9.12103 2.74576 10.8279 2.74576C11.6469 2.74576 12.4325 3.07651 13.0116 3.66527C13.5908 4.25402 13.9161 5.05255 13.9161 5.88517C13.9161 6.7178 13.5908 7.51632 13.0116 8.10508C12.4325 8.69383 11.6469 9.02459 10.8279 9.02459C10.0087 9.02459 9.22303 8.69377 8.64377 8.10491C8.0645 7.51604 7.73907 6.71737 7.73907 5.88459Z" fill="#019765"/>
</svg>
