<svg width="28" height="22" viewBox="0 0 28 22" fill="none" xmlns="http://www.w3.org/2000/svg">
<path d="M26.5731 0.971222C26.4811 0.971222 26.3863 0.98859 26.2934 1.02567L18.3111 3.97543H18.3106L10.2368 1.12519C9.93042 1.02334 9.60964 0.971356 9.28675 0.971222C8.97271 0.971222 8.65915 1.02051 8.35685 1.11862L1.22985 3.59755C0.951103 3.70904 0.712152 3.90149 0.543813 4.15006C0.375474 4.39864 0.285467 4.69195 0.2854 4.99216L0.2854 21.2487C0.2854 21.68 0.638864 22.0006 1.03598 22.0006C1.12799 22.0006 1.22234 21.9833 1.31575 21.9462L9.29801 18.9964L17.3718 21.8462C17.9816 22.0497 18.6405 22.0522 19.2518 21.8533L26.3788 19.3743C26.6576 19.2629 26.8966 19.0705 27.0649 18.8219C27.2332 18.5733 27.3232 18.2799 27.3232 17.9797V1.72321C27.3232 1.29183 26.9698 0.971222 26.5731 0.971222ZM10.8001 3.7135L16.8085 5.83475V19.2584L10.8001 17.1371V3.7135ZM2.53855 19.0927V5.52775L8.54696 3.43749V16.8719L8.51692 16.8827L2.53855 19.0927ZM25.0701 17.4436L19.0617 19.5339V6.09996L19.0917 6.0887L25.0701 3.8792V17.4436Z" fill="#BFBFBF"/>
</svg>
