<svg width="32" height="32" viewBox="0 0 32 32" fill="none" xmlns="http://www.w3.org/2000/svg">
<path d="M15.7712 2.25306C23.2063 2.25306 29.2896 8.33633 29.2896 15.7714C29.2896 23.2065 23.2063 29.2898 15.7712 29.2898C8.33614 29.2898 2.25288 23.2065 2.25288 15.7714C2.25288 8.33633 8.33614 2.25306 15.7712 2.25306ZM15.7712 0C7.09696 0 -0.000183105 7.09714 -0.000183105 15.7714C-0.000183105 24.4457 7.09696 31.5429 15.7712 31.5429C24.4455 31.5429 31.5427 24.4457 31.5427 15.7714C31.5427 7.09714 24.4455 0 15.7712 0Z" fill="#F4F4F4"/>
<path d="M24.7836 14.645H16.8979V6.75928H14.6448V14.645H6.75908V16.8981H14.6448V24.7838H16.8979V16.8981H24.7836V14.645Z" fill="#F4F4F4"/>
</svg>
