<svg width="21" height="26" viewBox="0 0 21 26" fill="none" xmlns="http://www.w3.org/2000/svg">
<path d="M10.8011 1.09973L10.828 1.10039L10.8549 1.09973C11.4747 1.08455 12.0918 1.1964 12.6702 1.42933C13.2486 1.66229 13.7774 2.01203 14.2248 2.45934C14.6723 2.9067 15.0293 3.44261 15.2735 4.03625C15.5178 4.62994 15.6439 5.26855 15.6439 5.91429C15.6439 6.56003 15.5178 7.19863 15.2735 7.79232C15.0293 8.38596 14.6723 8.92187 14.2248 9.36924C13.7774 9.81654 13.2486 10.1663 12.6702 10.3992C12.0918 10.6322 11.4747 10.744 10.8549 10.7288L10.828 10.7282L10.8011 10.7288C10.1813 10.744 9.56419 10.6322 8.98584 10.3992L8.5755 11.4181L8.98584 10.3992C8.40744 10.1663 7.87862 9.81654 7.43119 9.36924L6.6857 10.1149L7.43119 9.36924C6.9837 8.92187 6.6267 8.38596 6.38247 7.79232C6.13823 7.19863 6.01208 6.56003 6.01208 5.91429C6.01208 5.26855 6.13823 4.62994 6.38247 4.03625C6.6267 3.44261 6.9837 2.9067 7.43119 2.45934C7.87862 2.01203 8.40744 1.66229 8.98584 1.42933C9.56419 1.1964 10.1813 1.08455 10.8011 1.09973Z" stroke="#BFBFBF" stroke-width="2.19673"/>
<path d="M3.621 16.5606C4.60131 15.4817 5.90706 14.8984 7.24358 14.8984H14.4124C15.7489 14.8984 17.0547 15.4817 18.035 16.5606C19.0185 17.643 19.5868 19.1317 19.5868 20.7034V24.5302H2.06922V20.7034C2.06922 19.1317 2.63752 17.643 3.621 16.5606Z" stroke="#BFBFBF" stroke-width="2.19673"/>
</svg>
